<svg width="575" height="317" viewBox="0 0 575 317" fill="none" xmlns="http://www.w3.org/2000/svg">
<path d="M25 286H574" stroke="#282828"/>
<path d="M25 205H574" stroke="#282828"/>
<path d="M25 126H574" stroke="#282828"/>
<path d="M25 45H574" stroke="#282828"/>
<path d="M25 45V285.5" stroke="#282828" stroke-dasharray="4 4"/>
<path d="M134 45V285.5" stroke="#282828" stroke-dasharray="4 4"/>
<path d="M244 45V285.5" stroke="#282828" stroke-dasharray="4 4"/>
<path d="M355 45V285.5" stroke="#282828" stroke-dasharray="4 4"/>
<path d="M464 45V285.5" stroke="#282828" stroke-dasharray="4 4"/>
<path d="M574 45V285.5" stroke="#282828" stroke-dasharray="4 4"/>
<rect x="41" y="216" width="15" height="70" rx="4" fill="#22C55E"/>
<rect x="25" y="99" width="9" height="187" rx="4" fill="#1CA5F5"/>
<rect x="112" y="185" width="15" height="101" rx="4" fill="#22C55E"/>
<rect x="96" y="144" width="9" height="142" rx="4" fill="#1CA5F5"/>
<rect x="254" y="163" width="15" height="123" rx="4" fill="#22C55E"/>
<rect x="238" y="117" width="9" height="169" rx="4" fill="#1CA5F5"/>
<rect x="539" y="153" width="15" height="133" rx="4" fill="#22C55E"/>
<rect x="523" y="126" width="9" height="160" rx="4" fill="#1CA5F5"/>
<rect x="325" y="196" width="15" height="90" rx="4" fill="#22C55E"/>
<rect x="309" y="99" width="9" height="187" rx="4" fill="#1CA5F5"/>
<rect x="183" y="196" width="15" height="90" rx="4" fill="#22C55E"/>
<rect x="167" y="169" width="9" height="117" rx="4" fill="#1CA5F5"/>
<rect x="396" y="236" width="15" height="50" rx="4" fill="#22C55E"/>
<rect x="380" y="214" width="9" height="72" rx="4" fill="#1CA5F5"/>
<rect x="467" y="209" width="15" height="77" rx="4" fill="#22C55E"/>
<rect x="451" y="185" width="9" height="101" rx="4" fill="#1CA5F5"/>
<circle cx="31" cy="9" r="6" fill="#1CA5F5"/>
<circle cx="139" cy="9" r="6" fill="#22C55E"/>
<path d="M49.516 7.084C49.516 7.78 49.276 8.36 48.796 8.824C48.324 9.28 47.6 9.508 46.624 9.508H45.016V13H43.924V4.636H46.624C47.568 4.636 48.284 4.864 48.772 5.32C49.268 5.776 49.516 6.364 49.516 7.084ZM46.624 8.608C47.232 8.608 47.68 8.476 47.968 8.212C48.256 7.948 48.4 7.572 48.4 7.084C48.4 6.052 47.808 5.536 46.624 5.536H45.016V8.608H46.624ZM50.4652 9.688C50.4652 9.016 50.6012 8.428 50.8732 7.924C51.1452 7.412 51.5172 7.016 51.9892 6.736C52.4692 6.456 53.0012 6.316 53.5852 6.316C54.1612 6.316 54.6612 6.44 55.0852 6.688C55.5092 6.936 55.8252 7.248 56.0332 7.624V6.424H57.1372V13H56.0332V11.776C55.8172 12.16 55.4932 12.48 55.0612 12.736C54.6372 12.984 54.1412 13.108 53.5732 13.108C52.9892 13.108 52.4612 12.964 51.9892 12.676C51.5172 12.388 51.1452 11.984 50.8732 11.464C50.6012 10.944 50.4652 10.352 50.4652 9.688ZM56.0332 9.7C56.0332 9.204 55.9332 8.772 55.7332 8.404C55.5332 8.036 55.2612 7.756 54.9172 7.564C54.5812 7.364 54.2092 7.264 53.8012 7.264C53.3932 7.264 53.0212 7.36 52.6852 7.552C52.3492 7.744 52.0812 8.024 51.8812 8.392C51.6812 8.76 51.5812 9.192 51.5812 9.688C51.5812 10.192 51.6812 10.632 51.8812 11.008C52.0812 11.376 52.3492 11.66 52.6852 11.86C53.0212 12.052 53.3932 12.148 53.8012 12.148C54.2092 12.148 54.5812 12.052 54.9172 11.86C55.2612 11.66 55.5332 11.376 55.7332 11.008C55.9332 10.632 56.0332 10.196 56.0332 9.7ZM61.6946 6.316C62.2626 6.316 62.7586 6.44 63.1826 6.688C63.6146 6.936 63.9346 7.248 64.1426 7.624V6.424H65.2466V13.144C65.2466 13.744 65.1186 14.276 64.8626 14.74C64.6066 15.212 64.2386 15.58 63.7586 15.844C63.2866 16.108 62.7346 16.24 62.1026 16.24C61.2386 16.24 60.5186 16.036 59.9426 15.628C59.3666 15.22 59.0266 14.664 58.9226 13.96H60.0026C60.1226 14.36 60.3706 14.68 60.7466 14.92C61.1226 15.168 61.5746 15.292 62.1026 15.292C62.7026 15.292 63.1906 15.104 63.5666 14.728C63.9506 14.352 64.1426 13.824 64.1426 13.144V11.764C63.9266 12.148 63.6066 12.468 63.1826 12.724C62.7586 12.98 62.2626 13.108 61.6946 13.108C61.1106 13.108 60.5786 12.964 60.0986 12.676C59.6266 12.388 59.2546 11.984 58.9826 11.464C58.7106 10.944 58.5746 10.352 58.5746 9.688C58.5746 9.016 58.7106 8.428 58.9826 7.924C59.2546 7.412 59.6266 7.016 60.0986 6.736C60.5786 6.456 61.1106 6.316 61.6946 6.316ZM64.1426 9.7C64.1426 9.204 64.0426 8.772 63.8426 8.404C63.6426 8.036 63.3706 7.756 63.0266 7.564C62.6906 7.364 62.3186 7.264 61.9106 7.264C61.5026 7.264 61.1306 7.36 60.7946 7.552C60.4586 7.744 60.1906 8.024 59.9906 8.392C59.7906 8.76 59.6906 9.192 59.6906 9.688C59.6906 10.192 59.7906 10.632 59.9906 11.008C60.1906 11.376 60.4586 11.66 60.7946 11.86C61.1306 12.052 61.5026 12.148 61.9106 12.148C62.3186 12.148 62.6906 12.052 63.0266 11.86C63.3706 11.66 63.6426 11.376 63.8426 11.008C64.0426 10.632 64.1426 10.196 64.1426 9.7ZM73.092 9.46C73.092 9.668 73.08 9.888 73.056 10.12H67.8C67.84 10.768 68.06 11.276 68.46 11.644C68.868 12.004 69.36 12.184 69.936 12.184C70.408 12.184 70.8 12.076 71.112 11.86C71.432 11.636 71.656 11.34 71.784 10.972H72.96C72.784 11.604 72.432 12.12 71.904 12.52C71.376 12.912 70.72 13.108 69.936 13.108C69.312 13.108 68.752 12.968 68.256 12.688C67.768 12.408 67.384 12.012 67.104 11.5C66.824 10.98 66.684 10.38 66.684 9.7C66.684 9.02 66.82 8.424 67.092 7.912C67.364 7.4 67.744 7.008 68.232 6.736C68.728 6.456 69.296 6.316 69.936 6.316C70.56 6.316 71.112 6.452 71.592 6.724C72.072 6.996 72.44 7.372 72.696 7.852C72.96 8.324 73.092 8.86 73.092 9.46ZM71.964 9.232C71.964 8.816 71.872 8.46 71.688 8.164C71.504 7.86 71.252 7.632 70.932 7.48C70.62 7.32 70.272 7.24 69.888 7.24C69.336 7.24 68.864 7.416 68.472 7.768C68.088 8.12 67.868 8.608 67.812 9.232H71.964ZM80.1806 11.992L82.2206 6.424H83.3846L80.8046 13H79.5326L76.9526 6.424H78.1286L80.1806 11.992ZM85.0232 5.356C84.8152 5.356 84.6392 5.284 84.4952 5.14C84.3512 4.996 84.2792 4.82 84.2792 4.612C84.2792 4.404 84.3512 4.228 84.4952 4.084C84.6392 3.94 84.8152 3.868 85.0232 3.868C85.2232 3.868 85.3912 3.94 85.5272 4.084C85.6712 4.228 85.7432 4.404 85.7432 4.612C85.7432 4.82 85.6712 4.996 85.5272 5.14C85.3912 5.284 85.2232 5.356 85.0232 5.356ZM85.5512 6.424V13H84.4592V6.424H85.5512ZM93.4123 9.46C93.4123 9.668 93.4003 9.888 93.3763 10.12H88.1203C88.1603 10.768 88.3803 11.276 88.7803 11.644C89.1883 12.004 89.6803 12.184 90.2563 12.184C90.7283 12.184 91.1203 12.076 91.4323 11.86C91.7523 11.636 91.9763 11.34 92.1043 10.972H93.2803C93.1043 11.604 92.7523 12.12 92.2243 12.52C91.6963 12.912 91.0403 13.108 90.2563 13.108C89.6323 13.108 89.0723 12.968 88.5763 12.688C88.0883 12.408 87.7043 12.012 87.4243 11.5C87.1443 10.98 87.0043 10.38 87.0043 9.7C87.0043 9.02 87.1403 8.424 87.4123 7.912C87.6843 7.4 88.0643 7.008 88.5523 6.736C89.0483 6.456 89.6163 6.316 90.2563 6.316C90.8803 6.316 91.4323 6.452 91.9123 6.724C92.3923 6.996 92.7603 7.372 93.0163 7.852C93.2803 8.324 93.4123 8.86 93.4123 9.46ZM92.2843 9.232C92.2843 8.816 92.1923 8.46 92.0083 8.164C91.8243 7.86 91.5723 7.632 91.2523 7.48C90.9403 7.32 90.5923 7.24 90.2083 7.24C89.6563 7.24 89.1843 7.416 88.7923 7.768C88.4083 8.12 88.1883 8.608 88.1323 9.232H92.2843ZM103.614 6.424L101.562 13H100.434L98.8497 7.78L97.2657 13H96.1377L94.0737 6.424H95.1897L96.7017 11.944L98.3337 6.424H99.4497L101.046 11.956L102.534 6.424H103.614ZM107.025 13.108C106.521 13.108 106.069 13.024 105.669 12.856C105.269 12.68 104.953 12.44 104.721 12.136C104.489 11.824 104.361 11.468 104.337 11.068H105.465C105.497 11.396 105.649 11.664 105.921 11.872C106.201 12.08 106.565 12.184 107.013 12.184C107.429 12.184 107.757 12.092 107.997 11.908C108.237 11.724 108.357 11.492 108.357 11.212C108.357 10.924 108.229 10.712 107.973 10.576C107.717 10.432 107.321 10.292 106.785 10.156C106.297 10.028 105.897 9.9 105.585 9.772C105.281 9.636 105.017 9.44 104.793 9.184C104.577 8.92 104.469 8.576 104.469 8.152C104.469 7.816 104.569 7.508 104.769 7.228C104.969 6.948 105.253 6.728 105.621 6.568C105.989 6.4 106.409 6.316 106.881 6.316C107.609 6.316 108.197 6.5 108.645 6.868C109.093 7.236 109.333 7.74 109.365 8.38H108.273C108.249 8.036 108.109 7.76 107.853 7.552C107.605 7.344 107.269 7.24 106.845 7.24C106.453 7.24 106.141 7.324 105.909 7.492C105.677 7.66 105.561 7.88 105.561 8.152C105.561 8.368 105.629 8.548 105.765 8.692C105.909 8.828 106.085 8.94 106.293 9.028C106.509 9.108 106.805 9.2 107.181 9.304C107.653 9.432 108.037 9.56 108.333 9.688C108.629 9.808 108.881 9.992 109.089 10.24C109.305 10.488 109.417 10.812 109.425 11.212C109.425 11.572 109.325 11.896 109.125 12.184C108.925 12.472 108.641 12.7 108.273 12.868C107.913 13.028 107.497 13.108 107.025 13.108Z" fill="white"/>
<path d="M152.992 4.636V9.928C152.992 10.672 153.172 11.224 153.532 11.584C153.9 11.944 154.408 12.124 155.056 12.124C155.696 12.124 156.196 11.944 156.556 11.584C156.924 11.224 157.108 10.672 157.108 9.928V4.636H158.2V9.916C158.2 10.612 158.06 11.2 157.78 11.68C157.5 12.152 157.12 12.504 156.64 12.736C156.168 12.968 155.636 13.084 155.044 13.084C154.452 13.084 153.916 12.968 153.436 12.736C152.964 12.504 152.588 12.152 152.308 11.68C152.036 11.2 151.9 10.612 151.9 9.916V4.636H152.992ZM163.226 6.304C164.026 6.304 164.674 6.548 165.17 7.036C165.666 7.516 165.914 8.212 165.914 9.124V13H164.834V9.28C164.834 8.624 164.67 8.124 164.342 7.78C164.014 7.428 163.566 7.252 162.998 7.252C162.422 7.252 161.962 7.432 161.618 7.792C161.282 8.152 161.114 8.676 161.114 9.364V13H160.022V6.424H161.114V7.36C161.33 7.024 161.622 6.764 161.99 6.58C162.366 6.396 162.778 6.304 163.226 6.304ZM168.261 5.356C168.053 5.356 167.877 5.284 167.733 5.14C167.589 4.996 167.517 4.82 167.517 4.612C167.517 4.404 167.589 4.228 167.733 4.084C167.877 3.94 168.053 3.868 168.261 3.868C168.461 3.868 168.629 3.94 168.765 4.084C168.909 4.228 168.981 4.404 168.981 4.612C168.981 4.82 168.909 4.996 168.765 5.14C168.629 5.284 168.461 5.356 168.261 5.356ZM168.789 6.424V13H167.697V6.424H168.789ZM170.243 9.688C170.243 9.016 170.379 8.428 170.651 7.924C170.923 7.412 171.295 7.016 171.767 6.736C172.247 6.456 172.783 6.316 173.375 6.316C173.943 6.316 174.439 6.444 174.863 6.7C175.295 6.948 175.611 7.256 175.811 7.624V6.424H176.915V16.12H175.811V11.788C175.603 12.156 175.283 12.468 174.851 12.724C174.419 12.98 173.915 13.108 173.339 13.108C172.763 13.108 172.239 12.964 171.767 12.676C171.295 12.388 170.923 11.984 170.651 11.464C170.379 10.944 170.243 10.352 170.243 9.688ZM175.811 9.7C175.811 9.204 175.711 8.772 175.511 8.404C175.311 8.036 175.039 7.756 174.695 7.564C174.359 7.364 173.987 7.264 173.579 7.264C173.171 7.264 172.799 7.36 172.463 7.552C172.127 7.744 171.859 8.024 171.659 8.392C171.459 8.76 171.359 9.192 171.359 9.688C171.359 10.192 171.459 10.632 171.659 11.008C171.859 11.376 172.127 11.66 172.463 11.86C172.799 12.052 173.171 12.148 173.579 12.148C173.987 12.148 174.359 12.052 174.695 11.86C175.039 11.66 175.311 11.376 175.511 11.008C175.711 10.632 175.811 10.196 175.811 9.7ZM184.592 6.424V13H183.5V12.028C183.292 12.364 183 12.628 182.624 12.82C182.256 13.004 181.848 13.096 181.4 13.096C180.888 13.096 180.428 12.992 180.02 12.784C179.612 12.568 179.288 12.248 179.048 11.824C178.816 11.4 178.7 10.884 178.7 10.276V6.424H179.78V10.132C179.78 10.78 179.944 11.28 180.272 11.632C180.6 11.976 181.048 12.148 181.616 12.148C182.2 12.148 182.66 11.968 182.996 11.608C183.332 11.248 183.5 10.724 183.5 10.036V6.424H184.592ZM192.436 9.46C192.436 9.668 192.424 9.888 192.4 10.12H187.144C187.184 10.768 187.404 11.276 187.804 11.644C188.212 12.004 188.704 12.184 189.28 12.184C189.752 12.184 190.144 12.076 190.456 11.86C190.776 11.636 191 11.34 191.128 10.972H192.304C192.128 11.604 191.776 12.12 191.248 12.52C190.72 12.912 190.064 13.108 189.28 13.108C188.656 13.108 188.096 12.968 187.6 12.688C187.112 12.408 186.728 12.012 186.448 11.5C186.168 10.98 186.028 10.38 186.028 9.7C186.028 9.02 186.164 8.424 186.436 7.912C186.708 7.4 187.088 7.008 187.576 6.736C188.072 6.456 188.64 6.316 189.28 6.316C189.904 6.316 190.456 6.452 190.936 6.724C191.416 6.996 191.784 7.372 192.04 7.852C192.304 8.324 192.436 8.86 192.436 9.46ZM191.308 9.232C191.308 8.816 191.216 8.46 191.032 8.164C190.848 7.86 190.596 7.632 190.276 7.48C189.964 7.32 189.616 7.24 189.232 7.24C188.68 7.24 188.208 7.416 187.816 7.768C187.432 8.12 187.212 8.608 187.156 9.232H191.308ZM199.524 11.992L201.564 6.424H202.728L200.148 13H198.876L196.296 6.424H197.472L199.524 11.992ZM204.367 5.356C204.159 5.356 203.983 5.284 203.839 5.14C203.695 4.996 203.623 4.82 203.623 4.612C203.623 4.404 203.695 4.228 203.839 4.084C203.983 3.94 204.159 3.868 204.367 3.868C204.567 3.868 204.735 3.94 204.871 4.084C205.015 4.228 205.087 4.404 205.087 4.612C205.087 4.82 205.015 4.996 204.871 5.14C204.735 5.284 204.567 5.356 204.367 5.356ZM204.895 6.424V13H203.803V6.424H204.895ZM209.084 13.108C208.58 13.108 208.128 13.024 207.728 12.856C207.328 12.68 207.012 12.44 206.78 12.136C206.548 11.824 206.42 11.468 206.396 11.068H207.524C207.556 11.396 207.708 11.664 207.98 11.872C208.26 12.08 208.624 12.184 209.072 12.184C209.488 12.184 209.816 12.092 210.056 11.908C210.296 11.724 210.416 11.492 210.416 11.212C210.416 10.924 210.288 10.712 210.032 10.576C209.776 10.432 209.38 10.292 208.844 10.156C208.356 10.028 207.956 9.9 207.644 9.772C207.34 9.636 207.076 9.44 206.852 9.184C206.636 8.92 206.528 8.576 206.528 8.152C206.528 7.816 206.628 7.508 206.828 7.228C207.028 6.948 207.312 6.728 207.68 6.568C208.048 6.4 208.468 6.316 208.94 6.316C209.668 6.316 210.256 6.5 210.704 6.868C211.152 7.236 211.392 7.74 211.424 8.38H210.332C210.308 8.036 210.168 7.76 209.912 7.552C209.664 7.344 209.328 7.24 208.904 7.24C208.512 7.24 208.2 7.324 207.968 7.492C207.736 7.66 207.62 7.88 207.62 8.152C207.62 8.368 207.688 8.548 207.824 8.692C207.968 8.828 208.144 8.94 208.352 9.028C208.568 9.108 208.864 9.2 209.24 9.304C209.712 9.432 210.096 9.56 210.392 9.688C210.688 9.808 210.94 9.992 211.148 10.24C211.364 10.488 211.476 10.812 211.484 11.212C211.484 11.572 211.384 11.896 211.184 12.184C210.984 12.472 210.7 12.7 210.332 12.868C209.972 13.028 209.556 13.108 209.084 13.108ZM213.59 5.356C213.382 5.356 213.206 5.284 213.062 5.14C212.918 4.996 212.846 4.82 212.846 4.612C212.846 4.404 212.918 4.228 213.062 4.084C213.206 3.94 213.382 3.868 213.59 3.868C213.79 3.868 213.958 3.94 214.094 4.084C214.238 4.228 214.31 4.404 214.31 4.612C214.31 4.82 214.238 4.996 214.094 5.14C213.958 5.284 213.79 5.356 213.59 5.356ZM214.118 6.424V13H213.026V6.424H214.118ZM217.311 7.324V11.2C217.311 11.52 217.379 11.748 217.515 11.884C217.651 12.012 217.887 12.076 218.223 12.076H219.027V13H218.043C217.435 13 216.979 12.86 216.675 12.58C216.371 12.3 216.219 11.84 216.219 11.2V7.324H215.367V6.424H216.219V4.768H217.311V6.424H219.027V7.324H217.311ZM223.218 13.108C222.602 13.108 222.042 12.968 221.538 12.688C221.042 12.408 220.65 12.012 220.362 11.5C220.082 10.98 219.942 10.38 219.942 9.7C219.942 9.028 220.086 8.436 220.374 7.924C220.67 7.404 221.07 7.008 221.574 6.736C222.078 6.456 222.642 6.316 223.266 6.316C223.89 6.316 224.454 6.456 224.958 6.736C225.462 7.008 225.858 7.4 226.146 7.912C226.442 8.424 226.59 9.02 226.59 9.7C226.59 10.38 226.438 10.98 226.134 11.5C225.838 12.012 225.434 12.408 224.922 12.688C224.41 12.968 223.842 13.108 223.218 13.108ZM223.218 12.148C223.61 12.148 223.978 12.056 224.322 11.872C224.666 11.688 224.942 11.412 225.15 11.044C225.366 10.676 225.474 10.228 225.474 9.7C225.474 9.172 225.37 8.724 225.162 8.356C224.954 7.988 224.682 7.716 224.346 7.54C224.01 7.356 223.646 7.264 223.254 7.264C222.854 7.264 222.486 7.356 222.15 7.54C221.822 7.716 221.558 7.988 221.358 8.356C221.158 8.724 221.058 9.172 221.058 9.7C221.058 10.236 221.154 10.688 221.346 11.056C221.546 11.424 221.81 11.7 222.138 11.884C222.466 12.06 222.826 12.148 223.218 12.148ZM229.118 7.492C229.31 7.116 229.582 6.824 229.934 6.616C230.294 6.408 230.73 6.304 231.242 6.304V7.432H230.954C229.73 7.432 229.118 8.096 229.118 9.424V13H228.026V6.424H229.118V7.492ZM234.83 13.108C234.326 13.108 233.874 13.024 233.474 12.856C233.074 12.68 232.758 12.44 232.526 12.136C232.294 11.824 232.166 11.468 232.142 11.068H233.27C233.302 11.396 233.454 11.664 233.726 11.872C234.006 12.08 234.37 12.184 234.818 12.184C235.234 12.184 235.562 12.092 235.802 11.908C236.042 11.724 236.162 11.492 236.162 11.212C236.162 10.924 236.034 10.712 235.778 10.576C235.522 10.432 235.126 10.292 234.59 10.156C234.102 10.028 233.702 9.9 233.39 9.772C233.086 9.636 232.822 9.44 232.598 9.184C232.382 8.92 232.274 8.576 232.274 8.152C232.274 7.816 232.374 7.508 232.574 7.228C232.774 6.948 233.058 6.728 233.426 6.568C233.794 6.4 234.214 6.316 234.686 6.316C235.414 6.316 236.002 6.5 236.45 6.868C236.898 7.236 237.138 7.74 237.17 8.38H236.078C236.054 8.036 235.914 7.76 235.658 7.552C235.41 7.344 235.074 7.24 234.65 7.24C234.258 7.24 233.946 7.324 233.714 7.492C233.482 7.66 233.366 7.88 233.366 8.152C233.366 8.368 233.434 8.548 233.57 8.692C233.714 8.828 233.89 8.94 234.098 9.028C234.314 9.108 234.61 9.2 234.986 9.304C235.458 9.432 235.842 9.56 236.138 9.688C236.434 9.808 236.686 9.992 236.894 10.24C237.11 10.488 237.222 10.812 237.23 11.212C237.23 11.572 237.13 11.896 236.93 12.184C236.73 12.472 236.446 12.7 236.078 12.868C235.718 13.028 235.302 13.108 234.83 13.108Z" fill="white"/>
<path d="M3.456 201.32V200.324H5.712V209H4.608V201.32H3.456ZM7.58775 204.572C7.58775 203.196 7.81175 202.124 8.25975 201.356C8.70775 200.58 9.49175 200.192 10.6118 200.192C11.7238 200.192 12.5038 200.58 12.9518 201.356C13.3997 202.124 13.6237 203.196 13.6237 204.572C13.6237 205.972 13.3997 207.06 12.9518 207.836C12.5038 208.612 11.7238 209 10.6118 209C9.49175 209 8.70775 208.612 8.25975 207.836C7.81175 207.06 7.58775 205.972 7.58775 204.572ZM12.5438 204.572C12.5438 203.876 12.4958 203.288 12.3998 202.808C12.3118 202.32 12.1238 201.928 11.8358 201.632C11.5558 201.336 11.1478 201.188 10.6118 201.188C10.0678 201.188 9.65175 201.336 9.36375 201.632C9.08375 201.928 8.89575 202.32 8.79975 202.808C8.71175 203.288 8.66775 203.876 8.66775 204.572C8.66775 205.292 8.71175 205.896 8.79975 206.384C8.89575 206.872 9.08375 207.264 9.36375 207.56C9.65175 207.856 10.0678 208.004 10.6118 208.004C11.1478 208.004 11.5558 207.856 11.8358 207.56C12.1238 207.264 12.3118 206.872 12.3998 206.384C12.4958 205.896 12.5438 205.292 12.5438 204.572ZM15.1229 204.572C15.1229 203.196 15.3469 202.124 15.7949 201.356C16.2429 200.58 17.0269 200.192 18.1469 200.192C19.2589 200.192 20.0389 200.58 20.4869 201.356C20.9349 202.124 21.1589 203.196 21.1589 204.572C21.1589 205.972 20.9349 207.06 20.4869 207.836C20.0389 208.612 19.2589 209 18.1469 209C17.0269 209 16.2429 208.612 15.7949 207.836C15.3469 207.06 15.1229 205.972 15.1229 204.572ZM20.0789 204.572C20.0789 203.876 20.0309 203.288 19.9349 202.808C19.8469 202.32 19.6589 201.928 19.3709 201.632C19.0909 201.336 18.6829 201.188 18.1469 201.188C17.6029 201.188 17.1869 201.336 16.8989 201.632C16.6189 201.928 16.4309 202.32 16.3349 202.808C16.2469 203.288 16.2029 203.876 16.2029 204.572C16.2029 205.292 16.2469 205.896 16.3349 206.384C16.4309 206.872 16.6189 207.264 16.8989 207.56C17.1869 207.856 17.6029 208.004 18.1469 208.004C18.6829 208.004 19.0909 207.856 19.3709 207.56C19.6589 207.264 19.8469 206.872 19.9349 206.384C20.0309 205.896 20.0789 205.292 20.0789 204.572Z" fill="#545454"/>
<path d="M25.456 304.32V303.324H27.712V312H26.608V304.32H25.456ZM29.4558 311.124C30.4718 310.308 31.2678 309.64 31.8438 309.12C32.4198 308.592 32.9038 308.044 33.2958 307.476C33.6958 306.9 33.8958 306.336 33.8958 305.784C33.8958 305.264 33.7678 304.856 33.5118 304.56C33.2638 304.256 32.8598 304.104 32.2998 304.104C31.7558 304.104 31.3318 304.276 31.0278 304.62C30.7318 304.956 30.5718 305.408 30.5478 305.976H29.4918C29.5238 305.08 29.7958 304.388 30.3078 303.9C30.8198 303.412 31.4798 303.168 32.2878 303.168C33.1118 303.168 33.7638 303.396 34.2438 303.852C34.7318 304.308 34.9758 304.936 34.9758 305.736C34.9758 306.4 34.7758 307.048 34.3758 307.68C33.9838 308.304 33.5358 308.856 33.0318 309.336C32.5278 309.808 31.8838 310.36 31.0998 310.992H35.2278V311.904H29.4558V311.124ZM36.2621 308.688C36.2621 308.016 36.3981 307.428 36.6701 306.924C36.9421 306.412 37.3141 306.016 37.7861 305.736C38.2661 305.456 38.7981 305.316 39.3821 305.316C39.9581 305.316 40.4581 305.44 40.8821 305.688C41.3061 305.936 41.6221 306.248 41.8301 306.624V305.424H42.9341V312H41.8301V310.776C41.6141 311.16 41.2901 311.48 40.8581 311.736C40.4341 311.984 39.9381 312.108 39.3701 312.108C38.7861 312.108 38.2581 311.964 37.7861 311.676C37.3141 311.388 36.9421 310.984 36.6701 310.464C36.3981 309.944 36.2621 309.352 36.2621 308.688ZM41.8301 308.7C41.8301 308.204 41.7301 307.772 41.5301 307.404C41.3301 307.036 41.0581 306.756 40.7141 306.564C40.3781 306.364 40.0061 306.264 39.5981 306.264C39.1901 306.264 38.8181 306.36 38.4821 306.552C38.1461 306.744 37.8781 307.024 37.6781 307.392C37.4781 307.76 37.3781 308.192 37.3781 308.688C37.3781 309.192 37.4781 309.632 37.6781 310.008C37.8781 310.376 38.1461 310.66 38.4821 310.86C38.8181 311.052 39.1901 311.148 39.5981 311.148C40.0061 311.148 40.3781 311.052 40.7141 310.86C41.0581 310.66 41.3301 310.376 41.5301 310.008C41.7301 309.632 41.8301 309.196 41.8301 308.7ZM52.6875 305.304C53.1995 305.304 53.6555 305.412 54.0555 305.628C54.4555 305.836 54.7715 306.152 55.0035 306.576C55.2355 307 55.3515 307.516 55.3515 308.124V312H54.2715V308.28C54.2715 307.624 54.1075 307.124 53.7795 306.78C53.4595 306.428 53.0235 306.252 52.4715 306.252C51.9035 306.252 51.4515 306.436 51.1155 306.804C50.7795 307.164 50.6115 307.688 50.6115 308.376V312H49.5315V308.28C49.5315 307.624 49.3675 307.124 49.0395 306.78C48.7195 306.428 48.2835 306.252 47.7315 306.252C47.1635 306.252 46.7115 306.436 46.3755 306.804C46.0395 307.164 45.8715 307.688 45.8715 308.376V312H44.7795V305.424H45.8715V306.372C46.0875 306.028 46.3755 305.764 46.7355 305.58C47.1035 305.396 47.5075 305.304 47.9475 305.304C48.4995 305.304 48.9875 305.428 49.4115 305.676C49.8355 305.924 50.1515 306.288 50.3595 306.768C50.5435 306.304 50.8475 305.944 51.2715 305.688C51.6955 305.432 52.1675 305.304 52.6875 305.304Z" fill="#545454"/>
<path d="M458.084 304.176L454.748 312H453.644L457.028 304.284H452.396V303.348H458.084V304.176ZM459.067 308.688C459.067 308.016 459.203 307.428 459.475 306.924C459.747 306.412 460.119 306.016 460.591 305.736C461.071 305.456 461.603 305.316 462.187 305.316C462.763 305.316 463.263 305.44 463.687 305.688C464.111 305.936 464.427 306.248 464.635 306.624V305.424H465.739V312H464.635V310.776C464.419 311.16 464.095 311.48 463.663 311.736C463.239 311.984 462.743 312.108 462.175 312.108C461.591 312.108 461.063 311.964 460.591 311.676C460.119 311.388 459.747 310.984 459.475 310.464C459.203 309.944 459.067 309.352 459.067 308.688ZM464.635 308.7C464.635 308.204 464.535 307.772 464.335 307.404C464.135 307.036 463.863 306.756 463.519 306.564C463.183 306.364 462.811 306.264 462.403 306.264C461.995 306.264 461.623 306.36 461.287 306.552C460.951 306.744 460.683 307.024 460.483 307.392C460.283 307.76 460.183 308.192 460.183 308.688C460.183 309.192 460.283 309.632 460.483 310.008C460.683 310.376 460.951 310.66 461.287 310.86C461.623 311.052 461.995 311.148 462.403 311.148C462.811 311.148 463.183 311.052 463.519 310.86C463.863 310.66 464.135 310.376 464.335 310.008C464.535 309.632 464.635 309.196 464.635 308.7ZM475.492 305.304C476.004 305.304 476.46 305.412 476.86 305.628C477.26 305.836 477.576 306.152 477.808 306.576C478.04 307 478.156 307.516 478.156 308.124V312H477.076V308.28C477.076 307.624 476.912 307.124 476.584 306.78C476.264 306.428 475.828 306.252 475.276 306.252C474.708 306.252 474.256 306.436 473.92 306.804C473.584 307.164 473.416 307.688 473.416 308.376V312H472.336V308.28C472.336 307.624 472.172 307.124 471.844 306.78C471.524 306.428 471.088 306.252 470.536 306.252C469.968 306.252 469.516 306.436 469.18 306.804C468.844 307.164 468.676 307.688 468.676 308.376V312H467.584V305.424H468.676V306.372C468.892 306.028 469.18 305.764 469.54 305.58C469.908 305.396 470.312 305.304 470.752 305.304C471.304 305.304 471.792 305.428 472.216 305.676C472.64 305.924 472.956 306.288 473.164 306.768C473.348 306.304 473.652 305.944 474.076 305.688C474.5 305.432 474.972 305.304 475.492 305.304Z" fill="#545454"/>
<path d="M239.48 310.068V309.24L243.692 303.408H245V309.12H246.2V310.068H245V312H243.92V310.068H239.48ZM243.968 304.548L240.74 309.12H243.968V304.548ZM247.063 308.688C247.063 308.016 247.199 307.428 247.471 306.924C247.743 306.412 248.115 306.016 248.587 305.736C249.067 305.456 249.599 305.316 250.183 305.316C250.759 305.316 251.259 305.44 251.683 305.688C252.107 305.936 252.423 306.248 252.631 306.624V305.424H253.735V312H252.631V310.776C252.415 311.16 252.091 311.48 251.659 311.736C251.235 311.984 250.739 312.108 250.171 312.108C249.587 312.108 249.059 311.964 248.587 311.676C248.115 311.388 247.743 310.984 247.471 310.464C247.199 309.944 247.063 309.352 247.063 308.688ZM252.631 308.7C252.631 308.204 252.531 307.772 252.331 307.404C252.131 307.036 251.859 306.756 251.515 306.564C251.179 306.364 250.807 306.264 250.399 306.264C249.991 306.264 249.619 306.36 249.283 306.552C248.947 306.744 248.679 307.024 248.479 307.392C248.279 307.76 248.179 308.192 248.179 308.688C248.179 309.192 248.279 309.632 248.479 310.008C248.679 310.376 248.947 310.66 249.283 310.86C249.619 311.052 249.991 311.148 250.399 311.148C250.807 311.148 251.179 311.052 251.515 310.86C251.859 310.66 252.131 310.376 252.331 310.008C252.531 309.632 252.631 309.196 252.631 308.7ZM263.488 305.304C264 305.304 264.456 305.412 264.856 305.628C265.256 305.836 265.572 306.152 265.804 306.576C266.036 307 266.152 307.516 266.152 308.124V312H265.072V308.28C265.072 307.624 264.908 307.124 264.58 306.78C264.26 306.428 263.824 306.252 263.272 306.252C262.704 306.252 262.252 306.436 261.916 306.804C261.58 307.164 261.412 307.688 261.412 308.376V312H260.332V308.28C260.332 307.624 260.168 307.124 259.84 306.78C259.52 306.428 259.084 306.252 258.532 306.252C257.964 306.252 257.512 306.436 257.176 306.804C256.84 307.164 256.672 307.688 256.672 308.376V312H255.58V305.424H256.672V306.372C256.888 306.028 257.176 305.764 257.536 305.58C257.904 305.396 258.308 305.304 258.748 305.304C259.3 305.304 259.788 305.428 260.212 305.676C260.636 305.924 260.952 306.288 261.16 306.768C261.344 306.304 261.648 305.944 262.072 305.688C262.496 305.432 262.968 305.304 263.488 305.304Z" fill="#545454"/>
<path d="M97.456 304.32V303.324H99.712V312H98.608V304.32H97.456ZM101.36 308.688C101.36 308.016 101.496 307.428 101.768 306.924C102.04 306.412 102.412 306.016 102.884 305.736C103.364 305.456 103.896 305.316 104.48 305.316C105.056 305.316 105.556 305.44 105.98 305.688C106.404 305.936 106.72 306.248 106.928 306.624V305.424H108.032V312H106.928V310.776C106.712 311.16 106.388 311.48 105.956 311.736C105.532 311.984 105.036 312.108 104.468 312.108C103.884 312.108 103.356 311.964 102.884 311.676C102.412 311.388 102.04 310.984 101.768 310.464C101.496 309.944 101.36 309.352 101.36 308.688ZM106.928 308.7C106.928 308.204 106.828 307.772 106.628 307.404C106.428 307.036 106.156 306.756 105.812 306.564C105.476 306.364 105.104 306.264 104.696 306.264C104.288 306.264 103.916 306.36 103.58 306.552C103.244 306.744 102.976 307.024 102.776 307.392C102.576 307.76 102.476 308.192 102.476 308.688C102.476 309.192 102.576 309.632 102.776 310.008C102.976 310.376 103.244 310.66 103.58 310.86C103.916 311.052 104.288 311.148 104.696 311.148C105.104 311.148 105.476 311.052 105.812 310.86C106.156 310.66 106.428 310.376 106.628 310.008C106.828 309.632 106.928 309.196 106.928 308.7ZM117.785 305.304C118.297 305.304 118.753 305.412 119.153 305.628C119.553 305.836 119.869 306.152 120.101 306.576C120.333 307 120.449 307.516 120.449 308.124V312H119.369V308.28C119.369 307.624 119.205 307.124 118.877 306.78C118.557 306.428 118.121 306.252 117.569 306.252C117.001 306.252 116.549 306.436 116.213 306.804C115.877 307.164 115.709 307.688 115.709 308.376V312H114.629V308.28C114.629 307.624 114.465 307.124 114.137 306.78C113.817 306.428 113.381 306.252 112.829 306.252C112.261 306.252 111.809 306.436 111.473 306.804C111.137 307.164 110.969 307.688 110.969 308.376V312H109.877V305.424H110.969V306.372C111.185 306.028 111.473 305.764 111.833 305.58C112.201 305.396 112.605 305.304 113.045 305.304C113.597 305.304 114.085 305.428 114.509 305.676C114.933 305.924 115.249 306.288 115.457 306.768C115.641 306.304 115.945 305.944 116.369 305.688C116.793 305.432 117.265 305.304 117.785 305.304Z" fill="#545454"/>
<path d="M526.328 307.488C525.88 307.312 525.536 307.056 525.296 306.72C525.056 306.384 524.936 305.976 524.936 305.496C524.936 305.064 525.044 304.676 525.26 304.332C525.476 303.98 525.796 303.704 526.22 303.504C526.652 303.296 527.172 303.192 527.78 303.192C528.388 303.192 528.904 303.296 529.328 303.504C529.76 303.704 530.084 303.98 530.3 304.332C530.524 304.676 530.636 305.064 530.636 305.496C530.636 305.96 530.512 306.368 530.264 306.72C530.016 307.064 529.676 307.32 529.244 307.488C529.74 307.64 530.132 307.908 530.42 308.292C530.716 308.668 530.864 309.124 530.864 309.66C530.864 310.18 530.736 310.636 530.48 311.028C530.224 311.412 529.86 311.712 529.388 311.928C528.924 312.136 528.388 312.24 527.78 312.24C527.172 312.24 526.636 312.136 526.172 311.928C525.716 311.712 525.36 311.412 525.104 311.028C524.848 310.636 524.72 310.18 524.72 309.66C524.72 309.124 524.864 308.664 525.152 308.28C525.44 307.896 525.832 307.632 526.328 307.488ZM529.58 305.628C529.58 305.14 529.42 304.764 529.1 304.5C528.78 304.236 528.34 304.104 527.78 304.104C527.228 304.104 526.792 304.236 526.472 304.5C526.152 304.764 525.992 305.144 525.992 305.64C525.992 306.088 526.156 306.448 526.484 306.72C526.82 306.992 527.252 307.128 527.78 307.128C528.316 307.128 528.748 306.992 529.076 306.72C529.412 306.44 529.58 306.076 529.58 305.628ZM527.78 307.968C527.188 307.968 526.704 308.108 526.328 308.388C525.952 308.66 525.764 309.072 525.764 309.624C525.764 310.136 525.944 310.548 526.304 310.86C526.672 311.172 527.164 311.328 527.78 311.328C528.396 311.328 528.884 311.172 529.244 310.86C529.604 310.548 529.784 310.136 529.784 309.624C529.784 309.088 529.6 308.68 529.232 308.4C528.864 308.112 528.38 307.968 527.78 307.968ZM532.086 308.688C532.086 308.016 532.222 307.428 532.494 306.924C532.766 306.412 533.138 306.016 533.61 305.736C534.09 305.456 534.622 305.316 535.206 305.316C535.782 305.316 536.282 305.44 536.706 305.688C537.13 305.936 537.446 306.248 537.654 306.624V305.424H538.758V312H537.654V310.776C537.438 311.16 537.114 311.48 536.682 311.736C536.258 311.984 535.762 312.108 535.194 312.108C534.61 312.108 534.082 311.964 533.61 311.676C533.138 311.388 532.766 310.984 532.494 310.464C532.222 309.944 532.086 309.352 532.086 308.688ZM537.654 308.7C537.654 308.204 537.554 307.772 537.354 307.404C537.154 307.036 536.882 306.756 536.538 306.564C536.202 306.364 535.83 306.264 535.422 306.264C535.014 306.264 534.642 306.36 534.306 306.552C533.97 306.744 533.702 307.024 533.502 307.392C533.302 307.76 533.202 308.192 533.202 308.688C533.202 309.192 533.302 309.632 533.502 310.008C533.702 310.376 533.97 310.66 534.306 310.86C534.642 311.052 535.014 311.148 535.422 311.148C535.83 311.148 536.202 311.052 536.538 310.86C536.882 310.66 537.154 310.376 537.354 310.008C537.554 309.632 537.654 309.196 537.654 308.7ZM548.512 305.304C549.024 305.304 549.48 305.412 549.88 305.628C550.28 305.836 550.596 306.152 550.828 306.576C551.06 307 551.176 307.516 551.176 308.124V312H550.096V308.28C550.096 307.624 549.932 307.124 549.604 306.78C549.284 306.428 548.848 306.252 548.296 306.252C547.728 306.252 547.276 306.436 546.94 306.804C546.604 307.164 546.436 307.688 546.436 308.376V312H545.356V308.28C545.356 307.624 545.192 307.124 544.864 306.78C544.544 306.428 544.108 306.252 543.556 306.252C542.988 306.252 542.536 306.436 542.2 306.804C541.864 307.164 541.696 307.688 541.696 308.376V312H540.604V305.424H541.696V306.372C541.912 306.028 542.2 305.764 542.56 305.58C542.928 305.396 543.332 305.304 543.772 305.304C544.324 305.304 544.812 305.428 545.236 305.676C545.66 305.924 545.976 306.288 546.184 306.768C546.368 306.304 546.672 305.944 547.096 305.688C547.52 305.432 547.992 305.304 548.512 305.304Z" fill="#545454"/>
<path d="M317.276 304.272H313.064V307.008C313.248 306.752 313.52 306.544 313.88 306.384C314.24 306.216 314.628 306.132 315.044 306.132C315.708 306.132 316.248 306.272 316.664 306.552C317.08 306.824 317.376 307.18 317.552 307.62C317.736 308.052 317.828 308.512 317.828 309C317.828 309.576 317.72 310.092 317.504 310.548C317.288 311.004 316.956 311.364 316.508 311.628C316.068 311.892 315.52 312.024 314.864 312.024C314.024 312.024 313.344 311.808 312.824 311.376C312.304 310.944 311.988 310.368 311.876 309.648H312.944C313.048 310.104 313.268 310.46 313.604 310.716C313.94 310.972 314.364 311.1 314.876 311.1C315.508 311.1 315.984 310.912 316.304 310.536C316.624 310.152 316.784 309.648 316.784 309.024C316.784 308.4 316.624 307.92 316.304 307.584C315.984 307.24 315.512 307.068 314.888 307.068C314.464 307.068 314.092 307.172 313.772 307.38C313.46 307.58 313.232 307.856 313.088 308.208H312.056V303.312H317.276V304.272ZM319.051 308.688C319.051 308.016 319.187 307.428 319.459 306.924C319.731 306.412 320.103 306.016 320.575 305.736C321.055 305.456 321.587 305.316 322.171 305.316C322.747 305.316 323.247 305.44 323.671 305.688C324.095 305.936 324.411 306.248 324.619 306.624V305.424H325.723V312H324.619V310.776C324.403 311.16 324.079 311.48 323.647 311.736C323.223 311.984 322.727 312.108 322.159 312.108C321.575 312.108 321.047 311.964 320.575 311.676C320.103 311.388 319.731 310.984 319.459 310.464C319.187 309.944 319.051 309.352 319.051 308.688ZM324.619 308.7C324.619 308.204 324.519 307.772 324.319 307.404C324.119 307.036 323.847 306.756 323.503 306.564C323.167 306.364 322.795 306.264 322.387 306.264C321.979 306.264 321.607 306.36 321.271 306.552C320.935 306.744 320.667 307.024 320.467 307.392C320.267 307.76 320.167 308.192 320.167 308.688C320.167 309.192 320.267 309.632 320.467 310.008C320.667 310.376 320.935 310.66 321.271 310.86C321.607 311.052 321.979 311.148 322.387 311.148C322.795 311.148 323.167 311.052 323.503 310.86C323.847 310.66 324.119 310.376 324.319 310.008C324.519 309.632 324.619 309.196 324.619 308.7ZM335.477 305.304C335.989 305.304 336.445 305.412 336.845 305.628C337.245 305.836 337.561 306.152 337.793 306.576C338.025 307 338.141 307.516 338.141 308.124V312H337.061V308.28C337.061 307.624 336.897 307.124 336.569 306.78C336.249 306.428 335.813 306.252 335.261 306.252C334.693 306.252 334.241 306.436 333.905 306.804C333.569 307.164 333.401 307.688 333.401 308.376V312H332.321V308.28C332.321 307.624 332.157 307.124 331.829 306.78C331.509 306.428 331.073 306.252 330.521 306.252C329.953 306.252 329.501 306.436 329.165 306.804C328.829 307.164 328.661 307.688 328.661 308.376V312H327.569V305.424H328.661V306.372C328.877 306.028 329.165 305.764 329.525 305.58C329.893 305.396 330.297 305.304 330.737 305.304C331.289 305.304 331.777 305.428 332.201 305.676C332.625 305.924 332.941 306.288 333.149 306.768C333.333 306.304 333.637 305.944 334.061 305.688C334.485 305.432 334.957 305.304 335.477 305.304Z" fill="#545454"/>
<path d="M169.72 305.508C169.776 304.772 170.06 304.196 170.572 303.78C171.084 303.364 171.748 303.156 172.564 303.156C173.108 303.156 173.576 303.256 173.968 303.456C174.368 303.648 174.668 303.912 174.868 304.248C175.076 304.584 175.18 304.964 175.18 305.388C175.18 305.884 175.036 306.312 174.748 306.672C174.468 307.032 174.1 307.264 173.644 307.368V307.428C174.164 307.556 174.576 307.808 174.88 308.184C175.184 308.56 175.336 309.052 175.336 309.66C175.336 310.116 175.232 310.528 175.024 310.896C174.816 311.256 174.504 311.54 174.088 311.748C173.672 311.956 173.172 312.06 172.588 312.06C171.74 312.06 171.044 311.84 170.5 311.4C169.956 310.952 169.652 310.32 169.588 309.504H170.644C170.7 309.984 170.896 310.376 171.232 310.68C171.568 310.984 172.016 311.136 172.576 311.136C173.136 311.136 173.56 310.992 173.848 310.704C174.144 310.408 174.292 310.028 174.292 309.564C174.292 308.964 174.092 308.532 173.692 308.268C173.292 308.004 172.688 307.872 171.88 307.872H171.604V306.96H171.892C172.628 306.952 173.184 306.832 173.56 306.6C173.936 306.36 174.124 305.992 174.124 305.496C174.124 305.072 173.984 304.732 173.704 304.476C173.432 304.22 173.04 304.092 172.528 304.092C172.032 304.092 171.632 304.22 171.328 304.476C171.024 304.732 170.844 305.076 170.788 305.508H169.72ZM176.582 308.688C176.582 308.016 176.718 307.428 176.99 306.924C177.262 306.412 177.634 306.016 178.106 305.736C178.586 305.456 179.118 305.316 179.702 305.316C180.278 305.316 180.778 305.44 181.202 305.688C181.626 305.936 181.942 306.248 182.15 306.624V305.424H183.254V312H182.15V310.776C181.934 311.16 181.61 311.48 181.178 311.736C180.754 311.984 180.258 312.108 179.69 312.108C179.106 312.108 178.578 311.964 178.106 311.676C177.634 311.388 177.262 310.984 176.99 310.464C176.718 309.944 176.582 309.352 176.582 308.688ZM182.15 308.7C182.15 308.204 182.05 307.772 181.85 307.404C181.65 307.036 181.378 306.756 181.034 306.564C180.698 306.364 180.326 306.264 179.918 306.264C179.51 306.264 179.138 306.36 178.802 306.552C178.466 306.744 178.198 307.024 177.998 307.392C177.798 307.76 177.698 308.192 177.698 308.688C177.698 309.192 177.798 309.632 177.998 310.008C178.198 310.376 178.466 310.66 178.802 310.86C179.138 311.052 179.51 311.148 179.918 311.148C180.326 311.148 180.698 311.052 181.034 310.86C181.378 310.66 181.65 310.376 181.85 310.008C182.05 309.632 182.15 309.196 182.15 308.7ZM193.008 305.304C193.52 305.304 193.976 305.412 194.376 305.628C194.776 305.836 195.092 306.152 195.324 306.576C195.556 307 195.672 307.516 195.672 308.124V312H194.592V308.28C194.592 307.624 194.428 307.124 194.1 306.78C193.78 306.428 193.344 306.252 192.792 306.252C192.224 306.252 191.772 306.436 191.436 306.804C191.1 307.164 190.932 307.688 190.932 308.376V312H189.852V308.28C189.852 307.624 189.688 307.124 189.36 306.78C189.04 306.428 188.604 306.252 188.052 306.252C187.484 306.252 187.032 306.436 186.696 306.804C186.36 307.164 186.192 307.688 186.192 308.376V312H185.1V305.424H186.192V306.372C186.408 306.028 186.696 305.764 187.056 305.58C187.424 305.396 187.828 305.304 188.268 305.304C188.82 305.304 189.308 305.428 189.732 305.676C190.156 305.924 190.472 306.288 190.68 306.768C190.864 306.304 191.168 305.944 191.592 305.688C192.016 305.432 192.488 305.304 193.008 305.304Z" fill="#545454"/>
<path d="M388.58 305.388C388.404 304.5 387.856 304.056 386.936 304.056C386.224 304.056 385.692 304.332 385.34 304.884C384.988 305.428 384.816 306.328 384.824 307.584C385.008 307.168 385.312 306.844 385.736 306.612C386.168 306.372 386.648 306.252 387.176 306.252C388 306.252 388.656 306.508 389.144 307.02C389.64 307.532 389.888 308.24 389.888 309.144C389.888 309.688 389.78 310.176 389.564 310.608C389.356 311.04 389.036 311.384 388.604 311.64C388.18 311.896 387.664 312.024 387.056 312.024C386.232 312.024 385.588 311.84 385.124 311.472C384.66 311.104 384.336 310.596 384.152 309.948C383.968 309.3 383.876 308.5 383.876 307.548C383.876 304.612 384.9 303.144 386.948 303.144C387.732 303.144 388.348 303.356 388.796 303.78C389.244 304.204 389.508 304.74 389.588 305.388H388.58ZM386.948 307.176C386.604 307.176 386.28 307.248 385.976 307.392C385.672 307.528 385.424 307.74 385.232 308.028C385.048 308.308 384.956 308.652 384.956 309.06C384.956 309.668 385.132 310.164 385.484 310.548C385.836 310.924 386.34 311.112 386.996 311.112C387.556 311.112 388 310.94 388.328 310.596C388.664 310.244 388.832 309.772 388.832 309.18C388.832 308.556 388.672 308.068 388.352 307.716C388.032 307.356 387.564 307.176 386.948 307.176ZM391.133 308.688C391.133 308.016 391.269 307.428 391.541 306.924C391.813 306.412 392.185 306.016 392.657 305.736C393.137 305.456 393.669 305.316 394.253 305.316C394.829 305.316 395.329 305.44 395.753 305.688C396.177 305.936 396.493 306.248 396.701 306.624V305.424H397.805V312H396.701V310.776C396.485 311.16 396.161 311.48 395.729 311.736C395.305 311.984 394.809 312.108 394.241 312.108C393.657 312.108 393.129 311.964 392.657 311.676C392.185 311.388 391.813 310.984 391.541 310.464C391.269 309.944 391.133 309.352 391.133 308.688ZM396.701 308.7C396.701 308.204 396.601 307.772 396.401 307.404C396.201 307.036 395.929 306.756 395.585 306.564C395.249 306.364 394.877 306.264 394.469 306.264C394.061 306.264 393.689 306.36 393.353 306.552C393.017 306.744 392.749 307.024 392.549 307.392C392.349 307.76 392.249 308.192 392.249 308.688C392.249 309.192 392.349 309.632 392.549 310.008C392.749 310.376 393.017 310.66 393.353 310.86C393.689 311.052 394.061 311.148 394.469 311.148C394.877 311.148 395.249 311.052 395.585 310.86C395.929 310.66 396.201 310.376 396.401 310.008C396.601 309.632 396.701 309.196 396.701 308.7ZM407.559 305.304C408.071 305.304 408.527 305.412 408.927 305.628C409.327 305.836 409.643 306.152 409.875 306.576C410.107 307 410.223 307.516 410.223 308.124V312H409.143V308.28C409.143 307.624 408.979 307.124 408.651 306.78C408.331 306.428 407.895 306.252 407.343 306.252C406.775 306.252 406.323 306.436 405.987 306.804C405.651 307.164 405.483 307.688 405.483 308.376V312H404.403V308.28C404.403 307.624 404.239 307.124 403.911 306.78C403.591 306.428 403.155 306.252 402.603 306.252C402.035 306.252 401.583 306.436 401.247 306.804C400.911 307.164 400.743 307.688 400.743 308.376V312H399.651V305.424H400.743V306.372C400.959 306.028 401.247 305.764 401.607 305.58C401.975 305.396 402.379 305.304 402.819 305.304C403.371 305.304 403.859 305.428 404.283 305.676C404.707 305.924 405.023 306.288 405.231 306.768C405.415 306.304 405.719 305.944 406.143 305.688C406.567 305.432 407.039 305.304 407.559 305.304Z" fill="#545454"/>
<path d="M3.456 122.32V121.324H5.712V130H4.608V122.32H3.456ZM13.1198 122.272H8.90775V125.008C9.09175 124.752 9.36375 124.544 9.72375 124.384C10.0838 124.216 10.4718 124.132 10.8878 124.132C11.5518 124.132 12.0918 124.272 12.5078 124.552C12.9238 124.824 13.2198 125.18 13.3958 125.62C13.5798 126.052 13.6718 126.512 13.6718 127C13.6718 127.576 13.5638 128.092 13.3478 128.548C13.1318 129.004 12.7998 129.364 12.3518 129.628C11.9118 129.892 11.3638 130.024 10.7078 130.024C9.86775 130.024 9.18775 129.808 8.66775 129.376C8.14775 128.944 7.83175 128.368 7.71975 127.648H8.78775C8.89175 128.104 9.11175 128.46 9.44775 128.716C9.78375 128.972 10.2078 129.1 10.7198 129.1C11.3518 129.1 11.8278 128.912 12.1478 128.536C12.4678 128.152 12.6278 127.648 12.6278 127.024C12.6278 126.4 12.4678 125.92 12.1478 125.584C11.8278 125.24 11.3558 125.068 10.7318 125.068C10.3078 125.068 9.93575 125.172 9.61575 125.38C9.30375 125.58 9.07575 125.856 8.93175 126.208H7.89975V121.312H13.1198V122.272ZM15.1229 125.572C15.1229 124.196 15.3469 123.124 15.7949 122.356C16.2429 121.58 17.0269 121.192 18.1469 121.192C19.2589 121.192 20.0389 121.58 20.4869 122.356C20.9349 123.124 21.1589 124.196 21.1589 125.572C21.1589 126.972 20.9349 128.06 20.4869 128.836C20.0389 129.612 19.2589 130 18.1469 130C17.0269 130 16.2429 129.612 15.7949 128.836C15.3469 128.06 15.1229 126.972 15.1229 125.572ZM20.0789 125.572C20.0789 124.876 20.0309 124.288 19.9349 123.808C19.8469 123.32 19.6589 122.928 19.3709 122.632C19.0909 122.336 18.6829 122.188 18.1469 122.188C17.6029 122.188 17.1869 122.336 16.8989 122.632C16.6189 122.928 16.4309 123.32 16.3349 123.808C16.2469 124.288 16.2029 124.876 16.2029 125.572C16.2029 126.292 16.2469 126.896 16.3349 127.384C16.4309 127.872 16.6189 128.264 16.8989 128.56C17.1869 128.856 17.6029 129.004 18.1469 129.004C18.6829 129.004 19.0909 128.856 19.3709 128.56C19.6589 128.264 19.8469 127.872 19.9349 127.384C20.0309 126.896 20.0789 126.292 20.0789 125.572Z" fill="#545454"/>
<path d="M0.612 48.124C1.628 47.308 2.424 46.64 3 46.12C3.576 45.592 4.06 45.044 4.452 44.476C4.852 43.9 5.052 43.336 5.052 42.784C5.052 42.264 4.924 41.856 4.668 41.56C4.42 41.256 4.016 41.104 3.456 41.104C2.912 41.104 2.488 41.276 2.184 41.62C1.888 41.956 1.728 42.408 1.704 42.976H0.648C0.68 42.08 0.952 41.388 1.464 40.9C1.976 40.412 2.636 40.168 3.444 40.168C4.268 40.168 4.92 40.396 5.4 40.852C5.888 41.308 6.132 41.936 6.132 42.736C6.132 43.4 5.932 44.048 5.532 44.68C5.14 45.304 4.692 45.856 4.188 46.336C3.684 46.808 3.04 47.36 2.256 47.992H6.384V48.904H0.612V48.124ZM7.64634 44.572C7.64634 43.196 7.87034 42.124 8.31834 41.356C8.76634 40.58 9.55034 40.192 10.6703 40.192C11.7823 40.192 12.5623 40.58 13.0103 41.356C13.4583 42.124 13.6823 43.196 13.6823 44.572C13.6823 45.972 13.4583 47.06 13.0103 47.836C12.5623 48.612 11.7823 49 10.6703 49C9.55034 49 8.76634 48.612 8.31834 47.836C7.87034 47.06 7.64634 45.972 7.64634 44.572ZM12.6023 44.572C12.6023 43.876 12.5543 43.288 12.4583 42.808C12.3703 42.32 12.1823 41.928 11.8943 41.632C11.6143 41.336 11.2063 41.188 10.6703 41.188C10.1263 41.188 9.71034 41.336 9.42234 41.632C9.14234 41.928 8.95434 42.32 8.85834 42.808C8.77034 43.288 8.72634 43.876 8.72634 44.572C8.72634 45.292 8.77034 45.896 8.85834 46.384C8.95434 46.872 9.14234 47.264 9.42234 47.56C9.71034 47.856 10.1263 48.004 10.6703 48.004C11.2063 48.004 11.6143 47.856 11.8943 47.56C12.1823 47.264 12.3703 46.872 12.4583 46.384C12.5543 45.896 12.6023 45.292 12.6023 44.572ZM15.1815 44.572C15.1815 43.196 15.4055 42.124 15.8535 41.356C16.3015 40.58 17.0855 40.192 18.2055 40.192C19.3175 40.192 20.0975 40.58 20.5455 41.356C20.9935 42.124 21.2175 43.196 21.2175 44.572C21.2175 45.972 20.9935 47.06 20.5455 47.836C20.0975 48.612 19.3175 49 18.2055 49C17.0855 49 16.3015 48.612 15.8535 47.836C15.4055 47.06 15.1815 45.972 15.1815 44.572ZM20.1375 44.572C20.1375 43.876 20.0895 43.288 19.9935 42.808C19.9055 42.32 19.7175 41.928 19.4295 41.632C19.1495 41.336 18.7415 41.188 18.2055 41.188C17.6615 41.188 17.2455 41.336 16.9575 41.632C16.6775 41.928 16.4895 42.32 16.3935 42.808C16.3055 43.288 16.2615 43.876 16.2615 44.572C16.2615 45.292 16.3055 45.896 16.3935 46.384C16.4895 46.872 16.6775 47.264 16.9575 47.56C17.2455 47.856 17.6615 48.004 18.2055 48.004C18.7415 48.004 19.1495 47.856 19.4295 47.56C19.7175 47.264 19.9055 46.872 19.9935 46.384C20.0895 45.896 20.1375 45.292 20.1375 44.572Z" fill="#545454"/>
</svg>
